<mxfile host="app.diagrams.net" modified="2025-08-03T00:00:00.000Z" agent="5.0" etag="resource_ownership_v1" version="24.6.4" type="device">
  <diagram name="Resource Ownership" id="resource-ownership">
    <mxGraphModel dx="1422" dy="754" grid="1" gridSize="10" guides="1" tooltips="1" connect="1" arrows="1" fold="1" page="1" pageScale="1" pageWidth="827" pageHeight="1169" math="0" shadow="0">
      <root>
        <mxCell id="0" />
        <mxCell id="1" parent="0" />
        
        <!-- Resource Manager -->
        <mxCell id="rm1" value="ResourceManager" style="rounded=1;whiteSpace=wrap;html=1;fillColor=#dae8fc;strokeColor=#6c8ebf;fontStyle=1" vertex="1" parent="1">
          <mxGeometry x="350" y="80" width="120" height="60" as="geometry" />
        </mxCell>
        
        <!-- Buffer Manager -->
        <mxCell id="bm1" value="BufferManager" style="rounded=1;whiteSpace=wrap;html=1;fillColor=#d5e8d4;strokeColor=#82b366" vertex="1" parent="1">
          <mxGeometry x="150" y="200" width="120" height="60" as="geometry" />
        </mxCell>
        
        <!-- Image Manager -->
        <mxCell id="im1" value="ImageManager" style="rounded=1;whiteSpace=wrap;html=1;fillColor=#d5e8d4;strokeColor=#82b366" vertex="1" parent="1">
          <mxGeometry x="350" y="200" width="120" height="60" as="geometry" />
        </mxCell>
        
        <!-- Pipeline Manager -->
        <mxCell id="pm1" value="PipelineManager" style="rounded=1;whiteSpace=wrap;html=1;fillColor=#d5e8d4;strokeColor=#82b366" vertex="1" parent="1">
          <mxGeometry x="550" y="200" width="120" height="60" as="geometry" />
        </mxCell>
        
        <!-- Owned Resources -->
        <mxCell id="vb1" value="VertexBuffer&#xa;(Owned)" style="rounded=0;whiteSpace=wrap;html=1;fillColor=#fff2cc;strokeColor=#d6b656" vertex="1" parent="1">
          <mxGeometry x="80" y="320" width="80" height="50" as="geometry" />
        </mxCell>
        
        <mxCell id="ib1" value="IndexBuffer&#xa;(Owned)" style="rounded=0;whiteSpace=wrap;html=1;fillColor=#fff2cc;strokeColor=#d6b656" vertex="1" parent="1">
          <mxGeometry x="180" y="320" width="80" height="50" as="geometry" />
        </mxCell>
        
        <mxCell id="ub1" value="UniformBuffer&#xa;(Owned)" style="rounded=0;whiteSpace=wrap;html=1;fillColor=#fff2cc;strokeColor=#d6b656" vertex="1" parent="1">
          <mxGeometry x="280" y="320" width="80" height="50" as="geometry" />
        </mxCell>
        
        <mxCell id="tx1" value="Texture&#xa;(Owned)" style="rounded=0;whiteSpace=wrap;html=1;fillColor=#fff2cc;strokeColor=#d6b656" vertex="1" parent="1">
          <mxGeometry x="380" y="320" width="80" height="50" as="geometry" />
        </mxCell>
        
        <mxCell id="rt1" value="RenderTarget&#xa;(Owned)" style="rounded=0;whiteSpace=wrap;html=1;fillColor=#fff2cc;strokeColor=#d6b656" vertex="1" parent="1">
          <mxGeometry x="480" y="320" width="80" height="50" as="geometry" />
        </mxCell>
        
        <mxCell id="gp1" value="GraphicsPipeline&#xa;(Owned)" style="rounded=0;whiteSpace=wrap;html=1;fillColor=#fff2cc;strokeColor=#d6b656" vertex="1" parent="1">
          <mxGeometry x="580" y="320" width="80" height="50" as="geometry" />
        </mxCell>
        
        <!-- Handle System -->
        <mxCell id="hs1" value="Handle System" style="rounded=1;whiteSpace=wrap;html=1;fillColor=#f8cecc;strokeColor=#b85450;fontStyle=1" vertex="1" parent="1">
          <mxGeometry x="350" y="420" width="120" height="40" as="geometry" />
        </mxCell>
        
        <mxCell id="bid1" value="BufferId(42)" style="ellipse;whiteSpace=wrap;html=1;fillColor=#ffe6cc;strokeColor=#d79b00" vertex="1" parent="1">
          <mxGeometry x="150" y="500" width="80" height="30" as="geometry" />
        </mxCell>
        
        <mxCell id="iid1" value="ImageId(17)" style="ellipse;whiteSpace=wrap;html=1;fillColor=#ffe6cc;strokeColor=#d79b00" vertex="1" parent="1">
          <mxGeometry x="250" y="500" width="80" height="30" as="geometry" />
        </mxCell>
        
        <mxCell id="pid1" value="PipelineId(3)" style="ellipse;whiteSpace=wrap;html=1;fillColor=#ffe6cc;strokeColor=#d79b00" vertex="1" parent="1">
          <mxGeometry x="450" y="500" width="80" height="30" as="geometry" />
        </mxCell>
        
        <!-- Ownership arrows -->
        <mxCell id="arrow1" style="edgeStyle=orthogonalEdgeStyle;rounded=0;orthogonalLoop=1;jettySize=auto;html=1;strokeWidth=2;fillColor=#dae8fc;strokeColor=#6c8ebf" edge="1" parent="1" source="rm1" target="bm1">
          <mxGeometry relative="1" as="geometry" />
        </mxCell>
        
        <mxCell id="arrow2" style="edgeStyle=orthogonalEdgeStyle;rounded=0;orthogonalLoop=1;jettySize=auto;html=1;strokeWidth=2;fillColor=#dae8fc;strokeColor=#6c8ebf" edge="1" parent="1" source="rm1" target="im1">
          <mxGeometry relative="1" as="geometry" />
        </mxCell>
        
        <mxCell id="arrow3" style="edgeStyle=orthogonalEdgeStyle;rounded=0;orthogonalLoop=1;jettySize=auto;html=1;strokeWidth=2;fillColor=#dae8fc;strokeColor=#6c8ebf" edge="1" parent="1" source="rm1" target="pm1">
          <mxGeometry relative="1" as="geometry" />
        </mxCell>
        
        <!-- Resource ownership -->
        <mxCell id="arrow4" style="edgeStyle=orthogonalEdgeStyle;rounded=0;orthogonalLoop=1;jettySize=auto;html=1;strokeWidth=1;fillColor=#d5e8d4;strokeColor=#82b366" edge="1" parent="1" source="bm1" target="vb1">
          <mxGeometry relative="1" as="geometry" />
        </mxCell>
        
        <mxCell id="arrow5" style="edgeStyle=orthogonalEdgeStyle;rounded=0;orthogonalLoop=1;jettySize=auto;html=1;strokeWidth=1;fillColor=#d5e8d4;strokeColor=#82b366" edge="1" parent="1" source="bm1" target="ib1">
          <mxGeometry relative="1" as="geometry" />
        </mxCell>
        
        <mxCell id="arrow6" style="edgeStyle=orthogonalEdgeStyle;rounded=0;orthogonalLoop=1;jettySize=auto;html=1;strokeWidth=1;fillColor=#d5e8d4;strokeColor=#82b366" edge="1" parent="1" source="bm1" target="ub1">
          <mxGeometry relative="1" as="geometry" />
        </mxCell>
        
        <mxCell id="arrow7" style="edgeStyle=orthogonalEdgeStyle;rounded=0;orthogonalLoop=1;jettySize=auto;html=1;strokeWidth=1;fillColor=#d5e8d4;strokeColor=#82b366" edge="1" parent="1" source="im1" target="tx1">
          <mxGeometry relative="1" as="geometry" />
        </mxCell>
        
        <mxCell id="arrow8" style="edgeStyle=orthogonalEdgeStyle;rounded=0;orthogonalLoop=1;jettySize=auto;html=1;strokeWidth=1;fillColor=#d5e8d4;strokeColor=#82b366" edge="1" parent="1" source="im1" target="rt1">
          <mxGeometry relative="1" as="geometry" />
        </mxCell>
        
        <mxCell id="arrow9" style="edgeStyle=orthogonalEdgeStyle;rounded=0;orthogonalLoop=1;jettySize=auto;html=1;strokeWidth=1;fillColor=#d5e8d4;strokeColor=#82b366" edge="1" parent="1" source="pm1" target="gp1">
          <mxGeometry relative="1" as="geometry" />
        </mxCell>
        
        <!-- Handle mapping -->
        <mxCell id="arrow10" style="edgeStyle=orthogonalEdgeStyle;rounded=0;orthogonalLoop=1;jettySize=auto;html=1;strokeWidth=1;fillColor=#f8cecc;strokeColor=#b85450;dashed=1" edge="1" parent="1" source="hs1" target="bid1">
          <mxGeometry relative="1" as="geometry" />
        </mxCell>
        
        <mxCell id="arrow11" style="edgeStyle=orthogonalEdgeStyle;rounded=0;orthogonalLoop=1;jettySize=auto;html=1;strokeWidth=1;fillColor=#f8cecc;strokeColor=#b85450;dashed=1" edge="1" parent="1" source="hs1" target="iid1">
          <mxGeometry relative="1" as="geometry" />
        </mxCell>
        
        <mxCell id="arrow12" style="edgeStyle=orthogonalEdgeStyle;rounded=0;orthogonalLoop=1;jettySize=auto;html=1;strokeWidth=1;fillColor=#f8cecc;strokeColor=#b85450;dashed=1" edge="1" parent="1" source="hs1" target="pid1">
          <mxGeometry relative="1" as="geometry" />
        </mxCell>
        
        <!-- Legend -->
        <mxCell id="legend" value="Legend" style="text;html=1;strokeColor=none;fillColor=none;align=left;verticalAlign=top;whiteSpace=wrap;rounded=0;fontStyle=1;fontSize=14" vertex="1" parent="1">
          <mxGeometry x="60" y="580" width="60" height="20" as="geometry" />
        </mxCell>
        
        <mxCell id="leg1" value="Owns" style="text;html=1;strokeColor=#6c8ebf;fillColor=#dae8fc;align=center;verticalAlign=middle;whiteSpace=wrap;rounded=0" vertex="1" parent="1">
          <mxGeometry x="60" y="610" width="40" height="20" as="geometry" />
        </mxCell>
        
        <mxCell id="leg2" value="Manages" style="text;html=1;strokeColor=#82b366;fillColor=#d5e8d4;align=center;verticalAlign=middle;whiteSpace=wrap;rounded=0" vertex="1" parent="1">
          <mxGeometry x="120" y="610" width="60" height="20" as="geometry" />
        </mxCell>
        
        <mxCell id="leg3" value="Handle Maps To" style="text;html=1;strokeColor=#b85450;fillColor=#f8cecc;align=center;verticalAlign=middle;whiteSpace=wrap;rounded=0" vertex="1" parent="1">
          <mxGeometry x="200" y="610" width="80" height="20" as="geometry" />
        </mxCell>
        
        <!-- Title -->
        <mxCell id="title" value="Resource Ownership Model" style="text;html=1;strokeColor=none;fillColor=none;align=center;verticalAlign=middle;whiteSpace=wrap;rounded=0;fontSize=18;fontStyle=1" vertex="1" parent="1">
          <mxGeometry x="300" y="20" width="220" height="30" as="geometry" />
        </mxCell>
        
        <!-- Key Principles -->
        <mxCell id="principle1" value="• Single Owner Rule&#xa;• RAII Pattern&#xa;• No Raw Handles&#xa;• Handle-Based Access" style="text;html=1;strokeColor=#d6b656;fillColor=#fff2cc;align=left;verticalAlign=top;whiteSpace=wrap;rounded=1;fontSize=10" vertex="1" parent="1">
          <mxGeometry x="500" y="580" width="140" height="80" as="geometry" />
        </mxCell>
      </root>
    </mxGraphModel>
  </diagram>
</mxfile>
